<?xml version="1.0" encoding="UTF-8" standalone="no"?>
<svg width="32px" height="16px" viewBox="0 0 32 16" version="1.1" xmlns="http://www.w3.org/2000/svg" xmlns:xlink="http://www.w3.org/1999/xlink" xmlns:sketch="http://www.bohemiancoding.com/sketch/ns">
    <!-- Generator: Sketch 3.3.3 (12081) - http://www.bohemiancoding.com/sketch -->
    <title>Artboard 22</title>
    <desc>Created with Sketch.</desc>
    <defs></defs>
    <g id="Redesign" stroke="none" stroke-width="1" fill="none" fill-rule="evenodd" sketch:type="MSPage">
        <g id="Artboard-22" sketch:type="MSArtboardGroup" fill="#999999">
            <path d="M23,2 L16,2 L16,16 L32,16 L32,4 L25,4 L23,2 L23,2 Z M30,14 L18,14 L18,4 L22.172,4 L24.172,6 L30,6 L30,14 L30,14 Z" id="category" sketch:type="MSShapeGroup"></path>
            <path d="M10,4 L6,4 L6,6 L4,6 L4,4 L2,4 L2,2 L4,2 L4,2 L4,0 L6,0 L6,2 L10,2 L10,0 L12,0 L12,2 L14,2 L14,4 L12,4 L12,6 L10,6 L10,4 L10,4 Z M0,2 L2,2 L2,16 L0,16 L0,2 L0,2 Z M14,2 L16,2 L16,16 L14,16 L14,2 L14,2 Z M2,14 L14,14 L14,16 L2,16 L2,14 L2,14 Z" id="calendar" sketch:type="MSShapeGroup"></path>
        </g>
    </g>
</svg>