<svg width="207" height="180" viewBox="0 0 207 180" xmlns="http://www.w3.org/2000/svg"><title>Artboard 25</title><g fill="none" fill-rule="evenodd"><g fill="#FFF"><path d="M62.006 41.535l-18 11.25 1.988 3.18 18-11.25-1.988-3.18M29.038 46.875l-8.544-5.34-1.988 3.18 18 11.25 1.988-3.18-9.456-5.91M47.23 65.2c-7.915-1.906-17.806 4.2-18.224 4.46l1.988 3.18c2.47-1.545 10.046-5.27 15.362-3.994 1.978.475 3.46 1.577 4.537 3.37l3.214-1.932c-1.596-2.66-3.91-4.372-6.876-5.085"/><path d="M46.875 14.12V0l-6.85 8.222L9.374 26.25v9.375h-3.75v7.5H0v18l9.375 3.214v6.91L41.25 90l31.875-18.75v-6.91l9.375-3.215v-18h-5.625v-7.5h-3.75V26.25l-25.19-14.818-1.06 2.687zm2.314 2.4l20.185 11.875v7.23h-56.25v-7.23L35.57 15.19l-2.564 7.31h.024l10.095-12.143 2.113 16.167 3.95-10.003zM9.374 39.376h63.75v7.5H9.375v-7.5zM3.75 58.445v-11.57h1.875v3.75h3.75v9.75l-5.625-1.93zm65.625 10.66L41.25 85.65 13.125 69.105v-18.48h56.25v18.48zm9.375-10.66l-5.625 1.93v-9.75h3.75v-3.75h1.875v11.57z"/></g><g fill="#FFF"><path d="M165.63 41.535l-18 11.25 1.99 3.18 18-11.25-1.99-3.18M132.663 46.875l-8.544-5.34-1.99 3.18 18 11.25 1.99-3.18-9.457-5.91M150.856 65.2c-7.916-1.906-17.807 4.2-18.225 4.46l1.99 3.18c2.47-1.545 10.045-5.27 15.36-3.994 1.98.475 3.462 1.577 4.538 3.37l3.214-1.932c-1.596-2.66-3.91-4.372-6.876-5.085"/><path d="M152.814 16.52L173 28.396v7.23h-56.25v-7.23l22.446-13.204-2.565 7.31h.025l10.095-12.143 2.113 16.167 3.95-10.003zM113 39.376h63.75v7.5H113v-7.5zm60 29.73L144.875 85.65 116.75 69.105v-18.48H173v18.48zm3.75-8.73v-9.75h3.75v-15h-3.75V26.25l-25.19-14.818-1.06 2.687V0l-6.85 8.222L113 26.25v9.375h-3.75v15H113V71.25L144.875 90l31.875-18.75V60.375z"/><path d="M118.625 81.9L90.5 65.355v-14.73h3.307l6.068 12.135V50.625h9.375v-3.75h-9.375v-7.5h9.375v-3.75H96.125v11.25L90.5 35.625v-17.53l8.346 2.386 1.402.402 18.377-9.19 10.337 5.168 3.853-2.265-14.19-7.095-18.75 9.375-13.125-3.75v22.5H83v15h3.75V67.5l31.875 18.75 9.938-5.846-3.698-2.175-6.24 3.67zM86.75 39.375h1.433l3.75 7.5H86.75v-7.5zM203 35.625V26.25l-22.313-13.125V1.875L158 15.22l3.698 2.176 15.24-8.964v6.838l22.312 13.125v7.23H180.5v3.75H203v7.5h-22.5v3.75h7.5v21.347L171.125 81.9l-6.24-3.67-3.698 2.174 9.938 5.846 6.375-3.75H188v3.75l15-3.75V50.625h3.75v-15H203zM188 78.75h-4.125L188 76.324v2.426zm11.25-13.395V79.57l-7.5 1.876v-30.82h7.5v14.73z"/></g><g fill="#C8CCCC"><path d="M165.63 131.535l-18 11.25 1.99 3.18 18-11.25-1.99-3.18M132.663 136.875l-8.544-5.34-1.99 3.18 18 11.25 1.99-3.18-9.457-5.91M150.856 155.2c-7.916-1.906-17.807 4.2-18.225 4.46l1.99 3.18c2.47-1.545 10.045-5.27 15.36-3.994 1.98.475 3.462 1.577 4.538 3.37l3.214-1.932c-1.596-2.66-3.91-4.372-6.876-5.085"/><path d="M152.814 106.52L173 118.396v7.23h-56.25v-7.23l22.446-13.204-2.565 7.31h.025l10.095-12.143 2.113 16.167 3.95-10.003zM113 129.376h63.75v7.5H113v-7.5zm60 29.73l-28.125 16.545-28.125-16.545v-18.48H173v18.48zm3.75-8.73v-9.75h3.75v-15h-3.75v-9.375l-25.19-14.818-1.06 2.687V90l-6.85 8.222L113 116.25v9.375h-3.75v15H113v20.625L144.875 180l31.875-18.75v-10.875z"/><path d="M118.625 171.9L90.5 155.355v-14.73h3.307l6.068 12.135v-12.135h9.375v-3.75h-9.375v-7.5h9.375v-3.75H96.125v11.25l-5.625-11.25v-17.53l8.346 2.386 1.402.402 18.377-9.19 10.337 5.168 3.853-2.265-14.19-7.095-18.75 9.375-13.125-3.75v22.5H83v15h3.75V157.5l31.875 18.75 9.938-5.846-3.698-2.175-6.24 3.67zM86.75 129.375h1.433l3.75 7.5H86.75v-7.5zM203 125.625v-9.375l-22.313-13.125v-11.25L158 105.22l3.698 2.176 15.24-8.964v6.838l22.312 13.125v7.23H180.5v3.75H203v7.5h-22.5v3.75h7.5v21.347l-16.875 9.928-6.24-3.67-3.698 2.174 9.938 5.846 6.375-3.75H188v3.75l15-3.75v-31.875h3.75v-15H203zm-15 43.125h-4.125l4.125-2.426v2.426zm11.25-13.395v14.216l-7.5 1.876v-30.82h7.5v14.73z"/></g><g fill="#C8CCCC"><path d="M62.006 131.535l-18 11.25 1.988 3.18 18-11.25-1.988-3.18M29.038 136.875l-8.544-5.34-1.988 3.18 18 11.25 1.988-3.18-9.456-5.91M47.23 155.2c-7.915-1.906-17.806 4.2-18.224 4.46l1.988 3.18c2.47-1.545 10.046-5.27 15.362-3.994 1.978.475 3.46 1.577 4.537 3.37l3.214-1.932c-1.596-2.66-3.91-4.372-6.876-5.085"/><path d="M46.875 104.12V90l-6.85 8.222-30.65 18.028v9.375h-3.75v7.5H0v18l9.375 3.214v6.91L41.25 180l31.875-18.75v-6.91l9.375-3.215v-18h-5.625v-7.5h-3.75v-9.375l-25.19-14.818-1.06 2.687zm2.314 2.4l20.185 11.875v7.23h-56.25v-7.23L35.57 105.19l-2.564 7.31h.024l10.095-12.142 2.113 16.166 3.95-10.003zM9.374 129.376h63.75v7.5H9.375v-7.5zm-5.625 19.07v-11.57h1.875v3.75h3.75v9.75l-5.625-1.93zm65.625 10.66L41.25 175.65l-28.125-16.545v-18.48h56.25v18.48zm9.375-10.66l-5.625 1.93v-9.75h3.75v-3.75h1.875v11.57z"/></g></g></svg>