<svg width="32" height="18" viewBox="0 0 32 18" xmlns="http://www.w3.org/2000/svg"><title>Artboard 20</title><g fill="#E22727" fill-rule="evenodd"><path d="M14.78 3.594l-7.07 5.07h.58l-7.07-5.07-.582.812 7.07 5.07.292.21.29-.21 7.072-5.07-.582-.812z"/><path d="M1 5.01v7.98c0 .56.448 1.01.994 1.01h12.012c.546 0 .994-.45.994-1.01V5.01c0-.56-.448-1.01-.994-1.01H1.994C1.448 4 1 4.45 1 5.01zm-1 0C0 3.9.895 3 1.994 3h12.012C15.106 3 16 3.902 16 5.01v7.98c0 1.11-.895 2.01-1.994 2.01H1.994C.894 15 0 14.098 0 12.99V5.01z"/><g transform="translate(18)"><circle cx="6" cy="15" r="1"/><path d="M1 12h10v1H1z"/><path d="M1 1.995v14.01c0 .548.45.995 1.01.995h7.98c.558 0 1.01-.448 1.01-.995V1.995C11 1.447 10.55 1 9.99 1H2.01C1.45 1 1 1.448 1 1.995zm-1 0C0 .893.902 0 2.01 0h7.98C11.1 0 12 .893 12 1.995v14.01C12 17.107 11.098 18 9.99 18H2.01C.9 18 0 17.107 0 16.005V1.995z"/></g></g></svg>