<svg xmlns="http://www.w3.org/2000/svg" width="272" height="80" viewBox="0 0 272 80"><title>home-why-icon</title><path fill="none" d="M98 42h8v8h-8zM86 30h8v8h-8zM98 30h8v8h-8zM110 42h8v8h-8zM161 26.433c-4.97 0-9 3.6-9 9 0 10.35 18 21.6 18 21.6s18-11.25 18-21.6c0-5.4-4.03-9-9-9-6.75 0-9 8.1-9 9 0-.9-2.25-9-9-9z"/><path fill="#FFF" d="M68 20h.002l-13.31-7.832-2.587-1.52.586 4.986 11.313 6.654v35.424l-30 17.648-14.378-8.458.586 4.986L34.004 80l34-20H68"/><path fill="#FFF" d="M53.74 57v-3.954H24.798l-3.727-3.658-2.926-17.208 4.05-8.225h12.33v5.983l-.558 1.178-11.792-.716 2.738 3.462c2.465 3.116 3.38 6.5 3.628 7.59-.463.3-.917.622-1.354.992l2.583 3.013c2.466-2.078 5.724-2.545 8.265-2.525-.51.64-.985 1.33-1.378 2.13l3.582 1.734c3.106-6.317 13.147-5.127 13.245-5.115L54 37.76c-.36-.045-6.358-.775-11.49 1.657-1.463-.3-5.874-.998-10.287.342-.32-1.177-.91-2.947-1.944-4.907l6.14.374 2.093-4.405V20H19.7L14 31.587l3.35 19.715L23.157 57H53.74z"/><path fill="#FFF" d="M4.003 57.712V22.288l30-17.648 14.378 8.458-.585-4.986L34.003 0l-34 20v40L15.9 69.352l-.583-4.984M122.688 12.168l-2.586-1.52.584 4.986L132 22.288v35.424L102 75.36l-14.378-8.458.586 4.986L102 80l34-20V20"/><path fill="#FFF" d="M122 54V38h-12V26H82v16h12v12h28zm-12-12h8v8h-8v-8zM98 30h8v8h-8v-8zm0 12h8v8h-8v-8zm-12-4v-8h8v8h-8z"/><path fill="#FFF" d="M83.312 64.368L72 57.712V22.288L102 4.64l14.378 8.458-.586-4.986L102 0 68.002 20v40l15.896 9.352"/><path fill="#FFF" d="M68.003 20H68v40h.002M170 26.64c-2.096-2.355-5.062-4.207-9-4.207-7.412 0-13 5.588-13 13 0 12.214 17.846 23.72 19.88 24.992L170 61.75l2.12-1.325C174.154 59.153 192 47.647 192 35.433c0-7.412-5.588-13-13-13-3.938 0-6.902 1.852-9 4.206zm9-.207c4.97 0 9 3.6 9 9 0 10.35-18 21.6-18 21.6s-18-11.25-18-21.6c0-5.4 4.03-9 9-9 6.75 0 9 8.1 9 9 0-.9 2.25-9 9-9z"/><path fill="#FFF" d="M140 57.712V22.288L170 4.64l14.378 8.458-.586-4.986L170 0l-34 20v40l15.898 9.352-.584-4.984M190.688 12.168l-2.586-1.52.586 4.986L200 22.288v35.424L170 75.36l-14.378-8.458.586 4.986L170 80l34-20V20M258.688 12.168l-2.586-1.52.586 4.986L268 22.288v35.424L238 75.36l-14.378-8.458.586 4.986L238 80l34-20V20M208 57.712V22.288L238 4.64l14.378 8.458-.586-4.986L238 0l-34 20v40l15.898 9.352-.584-4.984"/><path fill="#FFF" d="M260.425 38.773l-3.737-11.677-11.002 1.785-1.674-10.805H231.88l-1.713 10.823-10.898-1.677-3.693 11.545 9.742 4.98-5.1 9.87 9.913 7.216 7.867-7.9 7.86 7.897 9.89-7.13-5.173-9.945 9.848-4.98zm-9.82 13.7l-4.317 3.114L238 47.26l-8.283 8.322-4.367-3.178 5.368-10.39-10.295-5.263 1.617-5.054 11.457 1.763 1.8-11.383h5.29l1.765 11.4L253.93 31.6l1.647 5.145-10.414 5.265 5.442 10.464z"/></svg>